<mxfile host="app.diagrams.net" modified="2020-11-30T23:45:52.294Z" agent="5.0 (Macintosh; Intel Mac OS X 10_15_7) AppleWebKit/537.36 (KHTML, like Gecko) Chrome/87.0.4280.67 Safari/537.36" etag="OygZIucQd2kPJ_dOkXCO" version="13.10.1" type="github">
  <diagram id="prtHgNgQTEPvFCAcTncT" name="Page-1">
    <mxGraphModel dx="1090" dy="556" grid="1" gridSize="10" guides="1" tooltips="1" connect="1" arrows="1" fold="1" page="1" pageScale="1" pageWidth="827" pageHeight="1169" math="0" shadow="0">
      <root>
        <mxCell id="0" />
        <mxCell id="1" parent="0" />
        <mxCell id="OGqfemjWC5y47UtOaxeg-3" value="" style="edgeStyle=orthogonalEdgeStyle;rounded=0;orthogonalLoop=1;jettySize=auto;html=1;" edge="1" parent="1" source="OGqfemjWC5y47UtOaxeg-1" target="OGqfemjWC5y47UtOaxeg-2">
          <mxGeometry relative="1" as="geometry" />
        </mxCell>
        <mxCell id="OGqfemjWC5y47UtOaxeg-1" value="Screen 1" style="rounded=0;whiteSpace=wrap;html=1;" vertex="1" parent="1">
          <mxGeometry x="160" y="240" width="150" height="60" as="geometry" />
        </mxCell>
        <mxCell id="OGqfemjWC5y47UtOaxeg-2" value="Screen 2" style="rounded=0;whiteSpace=wrap;html=1;" vertex="1" parent="1">
          <mxGeometry x="390" y="240" width="150" height="60" as="geometry" />
        </mxCell>
      </root>
    </mxGraphModel>
  </diagram>
</mxfile>
